<svg width="32" height="32" viewBox="0 0 36 34" fill="none" xmlns="http://www.w3.org/2000/svg">
<path d="M7.0625 33.0938C5.45312 33.0938 4.95312 31.7344 5.78125 30.6406C6.48438 29.7188 7.79688 27.875 8.5 26.5156C3.5625 24.2344 0.28125 19.6875 0.28125 14.5625C0.28125 6.70312 8.15625 0.359375 18 0.359375C27.8438 0.359375 35.7188 6.70312 35.7188 14.5625C35.7188 22.75 27.5469 29 16.6562 28.7031C13.4844 30.9688 9.17188 33.0938 7.0625 33.0938ZM8.70312 30.5C10.125 29.9219 12.9062 28.2031 14.8281 26.8125C15.4219 26.3438 15.9219 26.1406 16.5781 26.1406C17.2031 26.1562 17.6875 26.1719 18 26.1719C26.4375 26.1719 33.1406 20.9531 33.1406 14.5625C33.1406 8.15625 26.4375 2.9375 18 2.9375C9.57812 2.9375 2.875 8.15625 2.875 14.5625C2.875 18.7188 5.6875 22.3594 10.5938 24.6406C11.5938 25.1094 11.7031 25.8281 11.2656 26.6406C10.7344 27.6406 9.48438 29.2656 8.60938 30.3438C8.53125 30.4531 8.57812 30.5469 8.70312 30.5Z" fill="white"/>
</svg>
