<svg width="18" height="18" viewBox="0 0 18 18" fill="none" xmlns="http://www.w3.org/2000/svg">
<path d="M0.78125 12.2344C0.78125 9.51562 2.34375 7.33594 4.39062 7.33594H5.75C7.4375 5.26562 8.59375 3.65625 9.53125 1.84375C10.0469 0.851562 10.6016 0.4375 11.3984 0.4375C12.4922 0.4375 13.2891 1.25781 13.2891 2.39062C13.2891 3.92969 12.0625 5.8125 12.0234 6.59375C12.0156 6.73438 12.1172 6.80469 12.2734 6.80469H15.0938C16.2969 6.80469 17.2188 7.74219 17.2188 8.94531C17.2188 9.41406 17.0938 9.85938 16.8906 10.1797C17.0391 10.4609 17.125 10.8359 17.125 11.1953C17.125 11.7578 16.9297 12.2891 16.5781 12.6641C16.6797 12.9062 16.7422 13.2031 16.7422 13.5078C16.7422 14.1562 16.4453 14.75 15.9297 15.1641C15.9766 15.3203 16 15.4844 16 15.6641C16 16.6484 15.2969 17.4453 14.1797 17.7188C13.6328 17.8594 12.7969 17.9141 11.8047 17.9141H10.75C9.41406 17.9141 8.19531 17.6172 7.17969 17.0938H4.67969C2.49219 17.0938 0.78125 14.8984 0.78125 12.2344ZM5.5 12.1719C5.5 14.7109 7.63281 16.5156 10.8281 16.5234H11.7344C12.6719 16.5234 13.3906 16.4766 13.8281 16.3594C14.3359 16.2344 14.5781 15.9766 14.5781 15.6562C14.5781 15.4844 14.5547 15.4141 14.3984 15.0156C14.2969 14.7812 14.3594 14.5234 14.6016 14.3906C15.0781 14.1328 15.3125 13.8594 15.3125 13.4922C15.3125 13.2578 15.2344 13.1016 15.0625 12.7891C14.9219 12.4844 15.0078 12.1875 15.2656 12.0078C15.5703 11.7734 15.7188 11.5078 15.7188 11.1953C15.7188 10.9375 15.625 10.7422 15.4062 10.4219C15.2344 10.2266 15.2578 9.94531 15.4609 9.75781C15.7188 9.49219 15.8203 9.28906 15.8203 8.96875C15.8203 8.53125 15.4922 8.20312 15.0547 8.20312H12.3359C11.3438 8.20312 10.6094 7.61719 10.6094 6.70312C10.6094 5.47656 11.8906 3.60156 11.8906 2.46875C11.8906 2.10156 11.7031 1.89844 11.4141 1.89844C11.1719 1.89844 11.0156 2.00781 10.7656 2.5C9.625 4.78125 8.03125 6.625 6.88281 8.15625C5.85938 9.53125 5.5 10.5625 5.5 12.1719ZM2.15625 12.2344C2.15625 14.1328 3.28125 15.6875 4.60156 15.7344C4.89062 15.7344 5.17188 15.7344 5.45312 15.7344C4.57812 14.7734 4.10156 13.5547 4.10156 12.1719C4.10156 10.8594 4.33594 9.77344 4.86719 8.71875C4.67188 8.72656 4.47656 8.72656 4.28125 8.72656C3.14844 8.77344 2.15625 10.3125 2.15625 12.2344Z" fill="#292A3A"/>
</svg>
