<svg width="16" height="16" viewBox="0 0 16 16" fill="none" xmlns="http://www.w3.org/2000/svg">
<path d="M0.109375 6.15625C0.109375 3.28906 2.09375 1.28906 4.64844 1.28906C6.13281 1.28906 7.30469 1.98438 8 3.00781C8.70312 1.97656 9.86719 1.28906 11.3516 1.28906C13.9141 1.28906 15.8906 3.28906 15.8906 6.15625C15.8906 9.5 13.0938 12.7969 8.72656 15.6094C8.49219 15.7578 8.20312 15.9062 8 15.9062C7.80469 15.9062 7.50781 15.7578 7.27344 15.6094C2.90625 12.7969 0.109375 9.5 0.109375 6.15625ZM1.67969 6.15625C1.67969 8.92188 4.5625 11.9766 7.85156 14.1641C7.92188 14.2109 7.96875 14.2422 8 14.2422C8.03125 14.2422 8.07812 14.2109 8.14844 14.1641C11.4375 11.9766 14.3203 8.92188 14.3203 6.15625C14.3203 4.17188 13.0156 2.83594 11.2656 2.83594C9.85938 2.83594 9.09375 3.70312 8.57031 4.44531C8.33594 4.75 8.20312 4.85938 8 4.85938C7.79688 4.85938 7.64844 4.75781 7.42969 4.44531C6.9375 3.69531 6.14844 2.83594 4.73438 2.83594C2.98438 2.83594 1.67969 4.17188 1.67969 6.15625Z" fill="#292A3A"/>
</svg>
