<svg width="17" height="18" viewBox="0 0 17 18" fill="none" xmlns="http://www.w3.org/2000/svg">
<path d="M10.1953 17.0859C9.4375 17.0859 9.15625 16.5 8.92188 15.7031L7.28906 10.125L1.64844 8.47656C0.882812 8.24219 0.328125 7.96094 0.328125 7.21875C0.328125 6.61719 0.835938 6.19531 1.50781 5.9375L15.0391 0.757812C15.3906 0.625 15.7031 0.546875 15.9609 0.546875C16.5156 0.546875 16.8672 0.890625 16.8672 1.44531C16.8672 1.71094 16.7891 2.02344 16.6562 2.36719L11.5 15.8438C11.2109 16.5938 10.7891 17.0859 10.1953 17.0859ZM7.73438 8.71094L12.5 3.95312C12.9688 3.48438 13.6484 2.9375 14.2109 2.48438C13.5156 2.80469 12.8672 3.11719 12.2031 3.375L2.80469 6.96094C2.70312 7 2.67188 7.03906 2.67188 7.09375C2.67188 7.14062 2.71094 7.17969 2.82812 7.21094L7.73438 8.71094ZM10.3281 14.75C10.375 14.75 10.4141 14.7031 10.4531 14.6016L14.0391 5.21094C14.2969 4.53906 14.6172 3.89062 14.9375 3.17969C14.4922 3.75 13.9219 4.45312 13.4609 4.91406L8.70312 9.67969L10.2031 14.5859C10.2344 14.7031 10.2734 14.75 10.3281 14.75Z" fill="#292A3A"/>
</svg>
