<svg width="20" height="18" viewBox="0 0 20 18" fill="none" xmlns="http://www.w3.org/2000/svg">
<path d="M4.49219 17.7422C3.57031 17.7422 3.23438 16.9219 3.72656 16.2656C4.0625 15.8203 4.66406 14.9453 5 14.3047C2.55469 13.1172 0.953125 10.8203 0.953125 8.25781C0.953125 4.22656 4.97656 0.984375 10 0.984375C15.0234 0.984375 19.0469 4.22656 19.0469 8.25781C19.0469 12.4297 14.9297 15.6172 9.42188 15.5156C7.77344 16.6875 5.57812 17.7422 4.49219 17.7422ZM5.42188 16.1562C6.125 15.875 7.52344 14.9922 8.46094 14.2969C8.77344 14.0547 9.02344 13.9531 9.35938 13.9531C9.64062 13.9609 9.85156 13.9688 10 13.9688C14.1641 13.9688 17.4766 11.4062 17.4766 8.25781C17.4766 5.10938 14.1641 2.54688 10 2.54688C5.83594 2.54688 2.52344 5.10938 2.52344 8.25781C2.52344 10.3047 3.90625 12.0859 6.28906 13.2109C6.78906 13.4453 6.875 13.8203 6.64062 14.25C6.35156 14.7891 5.75781 15.5625 5.35938 16.0625C5.29688 16.1406 5.33594 16.1953 5.42188 16.1562Z" fill="#292A3A"/>
</svg>
