<svg width="16" height="18" viewBox="0 0 16 18" fill="none" xmlns="http://www.w3.org/2000/svg">
<path d="M3.54688 17.9375C2.92969 17.9375 2.54688 17.5078 2.54688 16.8125V3.1875C2.54688 1.64062 3.35938 0.820312 4.89062 0.820312H11.1016C12.6328 0.820312 13.4453 1.64062 13.4453 3.1875V16.8125C13.4453 17.5078 13.0547 17.9375 12.4375 17.9375C12.0156 17.9375 11.7578 17.7109 11.0781 17.0625L8.0625 14.0703C8.02344 14.0391 7.96094 14.0391 7.92188 14.0703L4.90625 17.0547C4.23438 17.7109 3.96875 17.9375 3.54688 17.9375ZM4.28906 15.3984L7.48438 12.3047C7.8125 11.9844 8.17969 11.9844 8.50781 12.3047L11.7031 15.3984C11.8047 15.5 11.9297 15.4688 11.9297 15.3203V3.27344C11.9297 2.64844 11.6094 2.33594 10.9844 2.33594H5.00781C4.375 2.33594 4.0625 2.64844 4.0625 3.27344V15.3203C4.0625 15.4688 4.17969 15.5 4.28906 15.3984Z" fill="#292A3A"/>
</svg>
