<svg width="18" height="18" viewBox="0 0 18 18" fill="none" xmlns="http://www.w3.org/2000/svg">
<g id="social media logo">
<rect width="18" height="18" rx="5.625" fill="url(#paint0_linear_1499_147)"/>
<path id="Vector" d="M9.00018 3.96369C10.64 3.96369 10.8344 3.96909 11.4824 3.99969C12.0818 4.02669 12.4076 4.12749 12.6236 4.21209C12.9098 4.32369 13.115 4.45689 13.3292 4.67109C13.5434 4.88529 13.6766 5.09049 13.7882 5.37669C13.8728 5.59269 13.9718 5.91849 14.0006 6.51789C14.0294 7.16589 14.0366 7.36029 14.0366 9.00009C14.0366 10.6399 14.0312 10.8343 14.0006 11.4823C13.9736 12.0817 13.8728 12.4075 13.7882 12.6235C13.6766 12.9097 13.5434 13.1149 13.3292 13.3291C13.115 13.5433 12.9098 13.6765 12.6236 13.7881C12.4076 13.8727 12.0818 13.9717 11.4824 14.0005C10.8344 14.0293 10.64 14.0365 9.00018 14.0365C7.36038 14.0365 7.16598 14.0311 6.51798 14.0005C5.91858 13.9735 5.59278 13.8727 5.37678 13.7881C5.09058 13.6765 4.88538 13.5433 4.67118 13.3291C4.45698 13.1149 4.32378 12.9097 4.21218 12.6235C4.12758 12.4075 4.02858 12.0817 3.99978 11.4823C3.97098 10.8343 3.96378 10.6399 3.96378 9.00009C3.96378 7.36029 3.96918 7.16589 3.99978 6.51789C4.02678 5.91849 4.12758 5.59269 4.21218 5.37669C4.32378 5.09049 4.45698 4.88529 4.67118 4.67109C4.88538 4.45689 5.09058 4.32369 5.37678 4.21209C5.59278 4.12749 5.91858 4.02849 6.51798 3.99969C7.16598 3.96909 7.36038 3.96369 9.00018 3.96369ZM9.00018 2.85669C7.33158 2.85669 7.12278 2.86389 6.46758 2.89449C5.81418 2.92509 5.36778 3.02769 4.97538 3.18069C4.57218 3.33549 4.22838 3.54609 3.88818 3.88809C3.54618 4.23009 3.33738 4.57209 3.17898 4.97709C3.02778 5.36769 2.92338 5.81409 2.89278 6.46929C2.86218 7.12449 2.85498 7.33329 2.85498 9.00189C2.85498 10.6705 2.86218 10.8793 2.89278 11.5345C2.92338 12.1879 3.02598 12.6343 3.17898 13.0267C3.33558 13.4281 3.54618 13.7719 3.88818 14.1121C4.23018 14.4541 4.57218 14.6629 4.97718 14.8213C5.36778 14.9725 5.81418 15.0769 6.46938 15.1075C7.12458 15.1381 7.33338 15.1453 9.00198 15.1453C10.6706 15.1453 10.8794 15.1381 11.5346 15.1075C12.188 15.0769 12.6344 14.9743 13.0268 14.8213C13.4282 14.6647 13.772 14.4541 14.1122 14.1121C14.4542 13.7701 14.663 13.4281 14.8214 13.0231C14.9726 12.6325 15.077 12.1861 15.1076 11.5309C15.1382 10.8757 15.1454 10.6669 15.1454 8.99829C15.1454 7.32969 15.1382 7.12089 15.1076 6.46569C15.077 5.81229 14.9744 5.36589 14.8214 4.97349C14.6648 4.57209 14.4542 4.22829 14.1122 3.88809C13.7702 3.54609 13.4282 3.33729 13.0232 3.17889C12.6326 3.02769 12.1862 2.92329 11.531 2.89269C10.8776 2.86389 10.6688 2.85669 9.00018 2.85669Z" fill="white"/>
<path id="Vector_2" d="M9.00013 5.84448C7.25773 5.84448 5.84473 7.25748 5.84473 8.99988C5.84473 10.7423 7.25773 12.1553 9.00013 12.1553C10.7425 12.1553 12.1555 10.7423 12.1555 8.99988C12.1555 7.25748 10.7425 5.84448 9.00013 5.84448ZM9.00013 11.0483C7.86973 11.0483 6.95173 10.1321 6.95173 8.99988C6.95173 7.86768 7.86973 6.95148 9.00013 6.95148C10.1305 6.95148 11.0485 7.86768 11.0485 8.99988C11.0485 10.1321 10.1305 11.0483 9.00013 11.0483Z" fill="white"/>
<path id="Vector_3" d="M12.2795 6.45806C12.6871 6.45806 13.0175 6.12764 13.0175 5.72006C13.0175 5.31247 12.6871 4.98206 12.2795 4.98206C11.8719 4.98206 11.5415 5.31247 11.5415 5.72006C11.5415 6.12764 11.8719 6.45806 12.2795 6.45806Z" fill="white"/>
</g>
<defs>
<linearGradient id="paint0_linear_1499_147" x1="2.63604" y1="15.364" x2="15.364" y2="2.63604" gradientUnits="userSpaceOnUse">
<stop stop-color="#FFD521"/>
<stop offset="0.0551048" stop-color="#FFD020"/>
<stop offset="0.1241" stop-color="#FEC01E"/>
<stop offset="0.2004" stop-color="#FCA71B"/>
<stop offset="0.2821" stop-color="#FA8316"/>
<stop offset="0.3681" stop-color="#F85510"/>
<stop offset="0.4563" stop-color="#F51E09"/>
<stop offset="0.5" stop-color="#F30005"/>
<stop offset="0.5035" stop-color="#F20007"/>
<stop offset="0.5966" stop-color="#E1003B"/>
<stop offset="0.6879" stop-color="#D30067"/>
<stop offset="0.7757" stop-color="#C70088"/>
<stop offset="0.8589" stop-color="#BF00A0"/>
<stop offset="0.9357" stop-color="#BB00AF"/>
<stop offset="1" stop-color="#B900B4"/>
</linearGradient>
</defs>
</svg>
