<svg width="32" height="32" viewBox="0 0 32 32" fill="none" xmlns="http://www.w3.org/2000/svg">
<g filter="url(#filter0_d_1057_7775)">
<rect x="4" y="2" width="24" height="24" rx="12" fill="white" fill-opacity="0.7" shape-rendering="crispEdges"/>
<path d="M12.5664 14.4746C12.5697 14.3509 12.5941 14.2386 12.6396 14.1377C12.6852 14.0335 12.7568 13.9326 12.8545 13.835L16.5459 10.2217C16.6956 10.0752 16.8763 10.002 17.0879 10.002C17.2311 10.002 17.3613 10.0378 17.4785 10.1094C17.599 10.1777 17.695 10.2705 17.7666 10.3877C17.8382 10.5049 17.874 10.6351 17.874 10.7783C17.874 10.9964 17.7894 11.1868 17.6201 11.3496L14.4023 14.4697L17.6201 17.5947C17.7894 17.764 17.874 17.9561 17.874 18.1709C17.874 18.3141 17.8382 18.4443 17.7666 18.5615C17.695 18.6787 17.599 18.7715 17.4785 18.8398C17.3613 18.9115 17.2311 18.9473 17.0879 18.9473C16.8763 18.9473 16.6956 18.8724 16.5459 18.7227L12.8545 15.1094C12.7536 15.0117 12.6803 14.9124 12.6348 14.8115C12.5892 14.7074 12.5664 14.5951 12.5664 14.4746Z" fill="#292A3A" fill-opacity="0.8"/>
</g>
<defs>
<filter id="filter0_d_1057_7775" x="0" y="0" width="32" height="32" filterUnits="userSpaceOnUse" color-interpolation-filters="sRGB">
<feFlood flood-opacity="0" result="BackgroundImageFix"/>
<feColorMatrix in="SourceAlpha" type="matrix" values="0 0 0 0 0 0 0 0 0 0 0 0 0 0 0 0 0 0 127 0" result="hardAlpha"/>
<feOffset dy="2"/>
<feGaussianBlur stdDeviation="2"/>
<feComposite in2="hardAlpha" operator="out"/>
<feColorMatrix type="matrix" values="0 0 0 0 0 0 0 0 0 0 0 0 0 0 0 0 0 0 0.25 0"/>
<feBlend mode="normal" in2="BackgroundImageFix" result="effect1_dropShadow_1057_7775"/>
<feBlend mode="normal" in="SourceGraphic" in2="effect1_dropShadow_1057_7775" result="shape"/>
</filter>
</defs>
</svg>
