<svg width="6" height="9" viewBox="0 0 6 9" fill="none" xmlns="http://www.w3.org/2000/svg">
<path d="M0.566406 4.47461C0.569661 4.35091 0.594076 4.23861 0.639648 4.1377C0.685221 4.03353 0.756836 3.93262 0.854492 3.83496L4.5459 0.22168C4.69564 0.0751953 4.8763 0.00195312 5.08789 0.00195312C5.23112 0.00195312 5.36133 0.0377604 5.47852 0.109375C5.59896 0.177734 5.69499 0.270508 5.7666 0.387695C5.83822 0.504883 5.87402 0.635091 5.87402 0.77832C5.87402 0.996419 5.78939 1.18685 5.62012 1.34961L2.40234 4.46973L5.62012 7.59473C5.78939 7.764 5.87402 7.95605 5.87402 8.1709C5.87402 8.31413 5.83822 8.44434 5.7666 8.56152C5.69499 8.67871 5.59896 8.77148 5.47852 8.83984C5.36133 8.91146 5.23112 8.94727 5.08789 8.94727C4.8763 8.94727 4.69564 8.8724 4.5459 8.72266L0.854492 5.10938C0.753581 5.01172 0.680339 4.91243 0.634766 4.81152C0.589193 4.70736 0.566406 4.59505 0.566406 4.47461Z" fill="#292A3A" fill-opacity="0.8"/>
</svg>
