<svg width="32" height="32" viewBox="0 0 32 30" fill="none" xmlns="http://www.w3.org/2000/svg">
<path d="M0.484375 10.2969C0.484375 4.76562 4.28125 0.859375 9.34375 0.859375C12.2344 0.859375 14.6094 2.25 16 4.34375C17.4219 2.23438 19.7656 0.859375 22.6562 0.859375C27.7188 0.859375 31.5156 4.76562 31.5156 10.2969C31.5156 16.9531 25.9375 23.5 17.1406 29.125C16.7969 29.3281 16.3281 29.5469 16 29.5469C15.6719 29.5469 15.2031 29.3281 14.875 29.125C6.0625 23.5 0.484375 16.9531 0.484375 10.2969ZM3 10.2969C3 16.1094 9.14062 22.375 15.6875 26.7188C15.8281 26.8281 15.9375 26.9062 16 26.9062C16.0625 26.9062 16.1719 26.8281 16.3281 26.7188C22.8594 22.375 29 16.1094 29 10.2969C29 6.14062 26.3125 3.375 22.6875 3.375C19.7656 3.375 18.1406 5.23438 17.0625 6.76562C16.6094 7.375 16.375 7.5625 16 7.5625C15.625 7.5625 15.3594 7.39062 14.9375 6.76562C13.9375 5.20312 12.25 3.375 9.3125 3.375C5.6875 3.375 3 6.14062 3 10.2969Z" fill="white"/>
</svg>
