<svg width="32" height="32" viewBox="0 0 32 32" fill="none" xmlns="http://www.w3.org/2000/svg">
<path d="M4.39062 18.6719C2.75 18.6719 1.42188 17.3594 1.42188 15.7188C1.42188 14.0781 2.75 12.75 4.39062 12.75C6.03125 12.75 7.34375 14.0781 7.34375 15.7188C7.34375 17.3594 6.03125 18.6719 4.39062 18.6719ZM16 18.6719C14.3594 18.6719 13.0312 17.3594 13.0312 15.7188C13.0312 14.0781 14.3594 12.75 16 12.75C17.6406 12.75 18.9531 14.0781 18.9531 15.7188C18.9531 17.3594 17.6406 18.6719 16 18.6719ZM27.6094 18.6719C25.9688 18.6719 24.6406 17.3594 24.6406 15.7188C24.6406 14.0781 25.9688 12.75 27.6094 12.75C29.25 12.75 30.5781 14.0781 30.5781 15.7188C30.5781 17.3594 29.25 18.6719 27.6094 18.6719Z" fill="white"/>
</svg>
