<svg width="32" height="32" viewBox="0 0 32 32" fill="none" xmlns="http://www.w3.org/2000/svg">
<g filter="url(#filter0_d_1057_8161)">
<rect x="4" y="2" width="24" height="24" rx="12" fill="white" fill-opacity="0.7" shape-rendering="crispEdges"/>
<path d="M19.2363 14.4746C19.2363 14.5951 19.2119 14.7074 19.1631 14.8115C19.1175 14.9124 19.0443 15.0117 18.9434 15.1094L15.2568 18.7227C15.1071 18.8724 14.9248 18.9473 14.71 18.9473C14.57 18.9473 14.4398 18.9115 14.3193 18.8398C14.1989 18.7715 14.1029 18.6787 14.0312 18.5615C13.9629 18.4443 13.9287 18.3141 13.9287 18.1709C13.9287 17.9561 14.0117 17.764 14.1777 17.5947L17.3955 14.4697L14.1777 11.3496C14.0117 11.1868 13.9287 10.9964 13.9287 10.7783C13.9287 10.6351 13.9629 10.5049 14.0312 10.3877C14.1029 10.2705 14.1989 10.1777 14.3193 10.1094C14.4398 10.0378 14.57 10.002 14.71 10.002C14.9248 10.002 15.1071 10.0752 15.2568 10.2217L18.9434 13.835C19.0443 13.9326 19.1175 14.0335 19.1631 14.1377C19.2087 14.2386 19.2331 14.3509 19.2363 14.4746Z" fill="#292A3A" fill-opacity="0.8"/>
</g>
<defs>
<filter id="filter0_d_1057_8161" x="0" y="0" width="32" height="32" filterUnits="userSpaceOnUse" color-interpolation-filters="sRGB">
<feFlood flood-opacity="0" result="BackgroundImageFix"/>
<feColorMatrix in="SourceAlpha" type="matrix" values="0 0 0 0 0 0 0 0 0 0 0 0 0 0 0 0 0 0 127 0" result="hardAlpha"/>
<feOffset dy="2"/>
<feGaussianBlur stdDeviation="2"/>
<feComposite in2="hardAlpha" operator="out"/>
<feColorMatrix type="matrix" values="0 0 0 0 0 0 0 0 0 0 0 0 0 0 0 0 0 0 0.25 0"/>
<feBlend mode="normal" in2="BackgroundImageFix" result="effect1_dropShadow_1057_8161"/>
<feBlend mode="normal" in="SourceGraphic" in2="effect1_dropShadow_1057_8161" result="shape"/>
</filter>
</defs>
</svg>
