<svg width="7" height="9" viewBox="0 0 7 9" fill="none" xmlns="http://www.w3.org/2000/svg">
<path d="M6.23633 4.47461C6.23633 4.59505 6.21191 4.70736 6.16309 4.81152C6.11751 4.91243 6.04427 5.01172 5.94336 5.10938L2.25684 8.72266C2.1071 8.8724 1.9248 8.94727 1.70996 8.94727C1.56999 8.94727 1.43978 8.91146 1.31934 8.83984C1.19889 8.77148 1.10286 8.67871 1.03125 8.56152C0.962891 8.44434 0.928711 8.31413 0.928711 8.1709C0.928711 7.95605 1.01172 7.764 1.17773 7.59473L4.39551 4.46973L1.17773 1.34961C1.01172 1.18685 0.928711 0.996419 0.928711 0.77832C0.928711 0.635091 0.962891 0.504883 1.03125 0.387695C1.10286 0.270508 1.19889 0.177734 1.31934 0.109375C1.43978 0.0377604 1.56999 0.00195312 1.70996 0.00195312C1.9248 0.00195312 2.1071 0.0751953 2.25684 0.22168L5.94336 3.83496C6.04427 3.93262 6.11751 4.03353 6.16309 4.1377C6.20866 4.23861 6.23307 4.35091 6.23633 4.47461Z" fill="#292A3A" fill-opacity="0.8"/>
</svg>
