<svg width="32" height="32" viewBox="0 0 34 33" fill="none" xmlns="http://www.w3.org/2000/svg">
<path d="M20.3906 33C18.9375 33 18.4531 31.8438 17.9844 30.2656L14.7031 19.125L3.42188 15.8125C1.92188 15.3594 0.828125 14.875 0.828125 13.4375C0.828125 12.2969 1.84375 11.5 3.15625 11L30.0312 0.703125C30.75 0.421875 31.3906 0.265625 31.9219 0.265625C32.9375 0.265625 33.5625 0.890625 33.5625 1.90625C33.5625 2.4375 33.4062 3.07812 33.125 3.79688L22.8906 30.5312C22.3125 32.0312 21.5156 33 20.3906 33ZM15.4062 16.75L26.1562 6C27.0156 5.14062 28.2969 4.14062 29.3281 3.29688C28.1719 3.82812 26.9688 4.45312 25.7188 4.92188L4.59375 12.9219C4.35938 13.0156 4.29688 13.0938 4.29688 13.2031C4.29688 13.3125 4.375 13.375 4.625 13.4531L15.4062 16.75ZM20.6406 29.5625C20.75 29.5625 20.8125 29.4688 20.9062 29.2344L28.9062 8.10938C29.375 6.84375 30.0156 5.64062 30.5469 4.45312C29.7188 5.51562 28.6719 6.82812 27.8281 7.67188L17.0781 18.4219L20.375 29.2031C20.4531 29.4531 20.5156 29.5625 20.6406 29.5625Z" fill="white"/>
</svg>
