<svg width="20" height="16" viewBox="0 0 20 16" fill="none" xmlns="http://www.w3.org/2000/svg">
<path d="M9.5 15.3516C9.09375 15.3516 8.76562 15.1953 8.375 14.8203L5.10938 11.7344C5.0625 11.6875 5 11.6719 4.92969 11.6719H2.71094C1.57031 11.6719 0.953125 11.0312 0.953125 9.82812V6.92188C0.953125 5.71094 1.57031 5.07812 2.71094 5.07812H4.92969C5 5.07812 5.0625 5.05469 5.10938 5.01562L8.375 1.94531C8.8125 1.54688 9.08594 1.375 9.48438 1.375C10.0781 1.375 10.5 1.84375 10.5 2.42188V14.3516C10.5 14.9297 10.0781 15.3516 9.5 15.3516ZM16.4062 13.9141C16.0391 13.6797 15.9922 13.2266 16.2578 12.8203C17.0781 11.5938 17.5703 10.0078 17.5703 8.35938C17.5703 6.70312 17.0938 5.11719 16.2578 3.89844C15.9844 3.49219 16.0391 3.03906 16.4062 2.80469C16.7578 2.57812 17.1875 2.66406 17.4297 3.02344C18.4531 4.44531 19.0391 6.38281 19.0391 8.35938C19.0391 10.3359 18.4531 12.2578 17.4297 13.6953C17.1875 14.0547 16.7578 14.1328 16.4062 13.9141ZM13.2891 11.8281C12.9141 11.5703 12.8438 11.125 13.1406 10.6797C13.5703 10.0547 13.8203 9.22656 13.8203 8.35938C13.8203 7.48438 13.5781 6.65625 13.1406 6.03906C12.8438 5.60156 12.9141 5.14844 13.2891 4.89844C13.6172 4.67188 14.0547 4.75 14.2891 5.08594C14.9141 5.9375 15.2891 7.125 15.2891 8.35938C15.2891 9.59375 14.9141 10.7891 14.2891 11.625C14.0547 11.9688 13.6172 12.0391 13.2891 11.8281Z" fill="#292A3A" fill-opacity="0.8"/>
</svg>
