<svg width="16" height="17" viewBox="0 0 16 17" fill="none" xmlns="http://www.w3.org/2000/svg">
<path d="M11.8672 10.2734L6.39844 4.82031H6.58594C6.625 4.82031 6.67188 4.79688 6.70312 4.76562L9.73438 1.94531C10.1641 1.54688 10.4453 1.375 10.8438 1.375C11.4375 1.375 11.8672 1.84375 11.8672 2.42188V10.2734ZM14.5938 16.1094L0.921875 2.46094C0.6875 2.21875 0.6875 1.8125 0.921875 1.57812C1.16406 1.33594 1.5625 1.33594 1.80469 1.57812L15.4688 15.2344C15.7109 15.4766 15.7109 15.8672 15.4688 16.1094C15.2344 16.3516 14.8359 16.3516 14.5938 16.1094ZM4.03906 11.6719C2.89844 11.6719 2.3125 11.0703 2.3125 9.85938V6.89062C2.3125 6.32031 2.44531 5.88281 2.71094 5.59375L11.7891 14.6719C11.6406 15.1328 11.2969 15.3516 10.8516 15.3516C10.4531 15.3516 10.1328 15.1953 9.73438 14.8203L6.42188 11.7344C6.375 11.6875 6.32031 11.6719 6.24219 11.6719H4.03906Z" fill="#292A3A" fill-opacity="0.8"/>
</svg>
